<svg version="1.1" xmlns="http://www.w3.org/2000/svg" style="display: block;" viewBox="0 0 2048 2048" width="1535" height="1535" preserveAspectRatio="none">
<rect x="0" y="0" width="2048" height="2048" rx="90" ry="90" fill="oklch(0.7357 0.1641 34.7091)"/>
<path transform="translate(0,0)" fill="rgb(251,252,252)" d="M 1326.42 760.74 C 1329.56 756.807 1332.84 752.992 1336.25 749.302 C 1420.51 657.699 1579.12 612.471 1699.98 607.555 L 1621.41 1053.98 C 1605.94 1053.73 1590.47 1054.22 1575.05 1055.45 C 1513.31 1060.67 1448.45 1080.69 1398.38 1117.48 C 1386.7 1126.07 1377.16 1132.01 1367.59 1143.36 C 1367.99 1145.04 1368.24 1146.71 1368.46 1148.42 C 1370.43 1150.82 1370.43 1150.69 1373.1 1152.36 C 1451.57 1109.88 1543.59 1095.78 1631.8 1097.08 C 1653.99 961.858 1677.89 826.92 1703.48 692.298 C 1716.02 690.926 1731.43 690.525 1744.25 689.901 C 1736.99 725.218 1731.32 764.092 1724.93 799.871 L 1683.75 1026.48 L 1671.93 1091.55 C 1669.41 1105.94 1666.86 1122.97 1663.41 1136.93 C 1631.39 1136.71 1601.55 1136.28 1569.57 1139.17 C 1468.57 1148.29 1353.12 1181.52 1296.03 1272.34 C 1287.9 1285.27 1280.83 1302.49 1275.66 1316.96 C 1265.53 1345.32 1250.28 1371.06 1228.31 1392.11 C 1195.15 1423.87 1147.72 1443.68 1101.52 1442.77 C 1075.42 1442.26 1052.43 1435.28 1028.86 1424.38 C 957.795 1391.52 936.228 1330.25 901.477 1266.44 C 892.984 1250.85 880.274 1222.01 868.349 1210.03 C 851.042 1192.65 809.386 1184.66 785.873 1185.05 C 719.163 1186.13 654.389 1217.61 622.985 1278.42 C 617.84 1288.39 613.859 1298.94 609.54 1309.19 C 597.435 1337.91 584.225 1360.93 561.861 1383.15 C 547.916 1397.01 537.909 1402.89 521.313 1412.58 C 461.724 1447.36 399.057 1443.57 332.599 1443.21 C 340.31 1427.21 348.207 1407.39 355.179 1390.87 L 395.885 1294.12 L 525.426 986.196 L 570.859 876.536 C 579.137 856.623 586.785 835.92 596.784 816.827 C 642.531 729.471 761.964 703.21 833.871 774.984 C 858.963 800.029 871.462 828.077 888.216 858.499 C 919.315 916.098 949.881 973.984 979.912 1032.15 C 1010.2 1090.39 1036.71 1166.2 1110.73 1177.1 C 1142.74 1182.12 1175.42 1174.01 1201.37 1154.62 C 1244.63 1122.48 1250.39 1074.15 1259.81 1024.51 C 1264.26 1000.61 1268.92 976.752 1273.79 952.938 C 1279.1 926.241 1284.6 899.58 1290.27 872.957 C 1295.16 850.16 1301.31 823.294 1304.76 800.325 C 1298.33 787.601 1285.59 777.965 1273.73 770.486 C 1186.49 715.467 1070.11 724.292 974.007 745.575 C 972.454 752.243 970.934 760.47 969.87 767.281 C 964.126 804.067 953.372 842.399 949.498 879.279 C 939.259 858.885 928.558 839.636 917.993 819.483 C 926.099 784.207 932.397 747.097 938.541 711.46 C 1018.92 695.584 1092.61 680.587 1174.69 693.769 C 1236.63 703.718 1278.36 719.481 1326.42 760.74 z"/>
<path transform="translate(0,0)" fill="oklch(0.7357 0.1641 34.7091)" d="M 1367.59 1143.36 C 1367.99 1145.04 1368.24 1146.71 1368.46 1148.42 C 1370.43 1150.82 1370.43 1150.69 1373.1 1152.36 C 1363.31 1157.72 1354.02 1163.43 1344.49 1169.21 C 1351.58 1159.91 1358.94 1151.26 1367.59 1143.36 z"/>
<path transform="translate(0,0)" fill="oklch(0.7357 0.1641 34.7091)" d="M 1648.03 654.367 L 1650.28 654.566 C 1652.08 660.394 1592.89 972.701 1586.9 1012.88 C 1586.02 1012.89 1585.14 1012.91 1584.25 1012.94 C 1489.37 1015.72 1383.36 1063.91 1319.66 1134.72 C 1298.67 1158.19 1281.81 1186.5 1267.64 1214.38 C 1241.99 1264.83 1244.05 1317.49 1203.33 1360.34 C 1150.63 1415.81 1060.56 1414.73 1007.73 1360.93 C 974.694 1327.29 946.056 1261 922.913 1217.96 L 831.175 1048.02 C 827.606 1041.46 824.073 1034.71 820.463 1028.28 C 803.843 998.648 788.744 957.626 747.505 960.006 C 722.396 960.96 702.966 980.949 693.475 1003.11 C 650.998 1102.33 610.817 1202.54 569.218 1302.12 C 561.804 1319.87 553.041 1332.78 540.371 1347.01 C 502.277 1389.79 451.814 1401.92 396.964 1404.03 L 395.554 1403.46 L 395.192 1401.63 L 567.449 990.234 C 579.141 962.576 590.691 934.857 602.096 907.079 C 612.536 881.394 627.447 840.111 643.063 819.078 C 660.391 795.632 686.368 780.081 715.219 775.882 C 796.461 763.898 823.383 824.571 855.54 884.288 C 887.121 943.271 918.315 1002.46 949.12 1061.85 C 972.143 1105.41 993.305 1157.53 1033.85 1187.14 C 1068.36 1212.6 1111.68 1223.05 1154 1216.14 C 1215.84 1206.19 1267.11 1164.19 1283.47 1103.57 C 1292.02 1071.91 1298.55 1037.94 1304.8 1005.8 L 1333.28 862.645 C 1337.27 843.192 1343.29 803.097 1355.19 788.131 C 1422.66 703.259 1546.98 669.758 1648.03 654.367 z"/>
<path transform="translate(0,0)" fill="oklch(0.7357 0.1641 34.7091)" d="M 745.123 1000.97 C 750.947 1000.96 758.735 1002.25 762.062 1007.38 C 772.817 1023.97 782.926 1043.37 792.15 1060.81 C 808.342 1091.96 825.162 1122.78 842.601 1153.26 C 808.969 1142.52 779.085 1142.78 744.65 1148.25 C 718.287 1153.23 687.622 1165.13 664.755 1179.32 C 670.005 1167.37 674.775 1153.54 679.744 1141.16 C 690.663 1114.03 701.727 1086.95 712.934 1059.94 C 719.458 1044.21 731.083 1009.37 745.123 1000.97 z"/>
<path transform="translate(0,0)" fill="rgb(251,252,252)" d="M 1623.2 1183.44 C 1634.46 1183.03 1646.09 1183.21 1657.38 1183.23 C 1653.21 1198.37 1650.38 1223.33 1647.49 1239.68 C 1638.17 1292.53 1621.12 1339.29 1582.54 1377.92 C 1547.16 1412.99 1500.96 1435.07 1451.46 1440.56 C 1429.49 1442.78 1398.27 1441.96 1375.25 1441.94 L 1269.5 1441.84 C 1257.33 1441.84 1245.15 1441.99 1232.99 1442.3 C 1249.49 1430.21 1261.76 1416.71 1276.41 1402.77 C 1322.83 1401.47 1370.1 1404.17 1416.62 1402.61 C 1430.27 1402.15 1442.69 1401.99 1456.27 1399.72 C 1476.7 1396.37 1496.45 1389.73 1514.76 1380.06 C 1570.57 1350.43 1597.14 1297.92 1605.72 1237.76 C 1606.88 1229.62 1612.49 1190.4 1614.08 1185.17 C 1616.32 1183.25 1619.98 1183.61 1623.2 1183.44 z"/>
</svg>